# xmcd CD database file
#
# Track frame offsets:
#	150
#	19382
#	42182
#
# Disc length: 818 seconds
#
# Revision: 0
# Processed by: cddbd v1.5.1PL0 Copyright (c) Steve Scherf et al.
# Submitted via: CDex 1.51
#
DISCID=1e033003
DTITLE=Swinging Popsicle - Parade
DYEAR=1998
DGENRE=JPop
TTITLE0=Parade
TTITLE1=Ruby (Interstellar Samba Mix - Remixed By Yukihiro Fukutomi)
TTITLE2=Parade (Back Track)
EXTD=YEAR: 1998
EXTT0=
EXTT1=
EXTT2=
PLAYORDER=
